<svg width="212px" height="212px" viewBox="-2.4 -2.4 28.80 28.80" fill="none" xmlns="http://www.w3.org/2000/svg" stroke="#009919" transform="rotate(0)"><g id="SVGRepo_bgCarrier" stroke-width="0" transform="translate(0,0), scale(1)"><path transform="translate(-2.4, -2.4), scale(0.8999999999999999)" d="M16,26.759431535998978C18.448028205557424,26.804497356040624,20.83567634843293,27.870938330456106,23.18431812264558,27.179017207954423C25.962256967281196,26.36062311110853,29.30567335486676,25.25236748029731,30.321285834181676,22.540312094773725C31.345383171651964,19.805599046288776,28.78863274027316,17.08869093884271,28.017704284965056,14.272114980171645C27.362247293714997,11.877412344944652,27.340787737695912,9.390196420146452,26.12884847094233,7.223302838947211C24.704277106211432,4.676232510526809,23.25865446102678,1.6370479619673572,20.46988892102975,0.7769563423965415C17.67957789862889,-0.08361192407939078,14.718659049568233,1.5115548780068333,12.157729295897575,2.914427694680345C9.953018100503085,4.122164611400338,8.770783607521144,6.421823990997122,6.967674685243191,8.173445562429649C4.946509513788836,10.13689683817117,1.5007545349170655,11.074507720563162,0.9195005030105303,13.8317515097308C0.3412946709646175,16.574535820473354,2.7092030436747256,19.011780221744985,4.179785493376375,21.398111091112625C5.4858628866305965,23.51749773409758,6.716493283749868,25.88926174457679,8.983686202138259,26.91759737579955C11.158187798818053,27.903890802300783,13.612679228090968,26.71548328080964,16,26.759431535998978" fill="#e8ffe5" strokewidth="0"></path></g><g id="SVGRepo_tracerCarrier" stroke-linecap="round" stroke-linejoin="round" stroke="#CCCCCC" stroke-width="0.144"></g><g id="SVGRepo_iconCarrier"> <path d="M7 9L17 9" stroke="#12a30f" stroke-width="1.7759999999999998" stroke-linecap="round"></path> <path d="M7 12L13 12" stroke="#12a30f" stroke-width="1.7759999999999998" stroke-linecap="round"></path> <path d="M21 13V7C21 5.11438 21 4.17157 20.4142 3.58579C19.8284 3 18.8856 3 17 3H7C5.11438 3 4.17157 3 3.58579 3.58579C3 4.17157 3 5.11438 3 7V13C3 14.8856 3 15.8284 3.58579 16.4142C4.17157 17 5.11438 17 7 17H9H9.02322C9.31982 17 9.5955 17.1528 9.75269 17.4043L11.864 20.7824C11.9268 20.8829 12.0732 20.8829 12.136 20.7824L14.2945 17.3288C14.4223 17.1242 14.6465 17 14.8877 17H15H17C18.8856 17 19.8284 17 20.4142 16.4142C21 15.8284 21 14.8856 21 13Z" stroke="#12a30f" stroke-width="1.7759999999999998" stroke-linejoin="round"></path> </g></svg>